<svg xmlns="http://www.w3.org/2000/svg" viewBox="0 0 350.92 64.54"><path d="M341.56 12.58c-5.46 0-9.37 4.82-13.39 10.18C325.68 11.38 322.9 0 314.07 0S302.46 11.38 300 22.76c-4-5.36-7.93-10.18-13.39-10.18-3.47 0-9.35 2.37-9.35 11.22v16.11c0 8.69 4.64 10.82 7.42 11.54 4.8 1.25 16.36 2.4 29.37 2.4s24.57-1.15 29.36-2.4c2.79-.72 7.43-2.85 7.43-11.54V23.8c0-8.85-5.88-11.22-9.36-11.22M314.07 5c5.29 0 7.3 10.44 10.12 23-3.09 3.79-6.36 6.86-10.12 6.86S307 31.78 304 28c2.63-11.72 4.65-23 10.12-23m-31.84 34.91V23.8c0-5.59 3-6.2 4.33-6.2 3.85 0 8 6.43 11.94 11.59-2.83 11.71-5.78 18.81-12.75 17.37-1.82-.5-3.52-1.65-3.52-6.65M296 48.05c3-3.35 5-8.58 6.5-14.12 3.23 3.38 6.95 5.93 11.57 5.93s8.33-2.55 11.56-5.93c1.5 5.54 3.47 10.77 6.55 14.12-5.39.5-11.88.79-18.11.79s-12.73-.29-18.12-.79m49.91-8.14c0 5-1.71 6.15-3.52 6.65-7 1.48-9.93-5.66-12.72-17.37 3.95-5.16 8.09-11.59 11.94-11.59 1.3 0 4.34.61 4.34 6.2ZM1.13 52.07a1.12 1.12 0 0 1-.79-.34 1.16 1.16 0 0 1-.34-.85 1.52 1.52 0 0 1 .11-.52L14 13.74a2 2 0 0 1 .62-1 1.81 1.81 0 0 1 1.25-.4h5a1.81 1.81 0 0 1 1.25.4 2.44 2.44 0 0 1 .68 1l13.82 36.62a2.52 2.52 0 0 1 .06.52 1.16 1.16 0 0 1-.34.85 1.12 1.12 0 0 1-.79.34h-3.92a1.4 1.4 0 0 1-1.07-.37 2.41 2.41 0 0 1-.46-.7l-2.89-7.48H9.47L6.63 51a2 2 0 0 1-.48.66 1.5 1.5 0 0 1-1.1.37Zm10.15-14.18H25.4l-7.09-18.82Zm31.24 24.95a1.25 1.25 0 0 1-1.3-1.31V23.89a1.24 1.24 0 0 1 1.3-1.3h3.57a1.25 1.25 0 0 1 1.31 1.3v2.38a11.6 11.6 0 0 1 3.62-3A11.35 11.35 0 0 1 56.58 22a12.67 12.67 0 0 1 5.33 1 10.13 10.13 0 0 1 3.68 2.83 12.56 12.56 0 0 1 2.24 4.26 19.79 19.79 0 0 1 .88 5.21c0 .64.06 1.31.06 2s0 1.34-.06 2a18.1 18.1 0 0 1-.82 5.16 13.14 13.14 0 0 1-2.24 4.22 10.21 10.21 0 0 1-3.71 2.89 12.56 12.56 0 0 1-5.36 1.05 11.36 11.36 0 0 1-5.36-1.16 10.55 10.55 0 0 1-3.54-3v13a1.27 1.27 0 0 1-.37.94 1.38 1.38 0 0 1-1 .37ZM55 47.3a6.63 6.63 0 0 0 4.17-1.16 6.53 6.53 0 0 0 2.18-3 14.43 14.43 0 0 0 .8-4.14 25.8 25.8 0 0 0 0-3.29 14.43 14.43 0 0 0-.8-4.14 6.58 6.58 0 0 0-2.18-3A6.69 6.69 0 0 0 55 27.35a6.44 6.44 0 0 0-6.49 4.22 12.43 12.43 0 0 0-.82 3.77q-.06 1-.06 2.16c0 .79 0 1.53.06 2.21a9.3 9.3 0 0 0 .85 3.6 7.15 7.15 0 0 0 2.38 2.86A6.83 6.83 0 0 0 55 47.3Zm20.71 15.54a1.27 1.27 0 0 1-1.3-1.31V23.89a1.25 1.25 0 0 1 1.3-1.3h3.58a1.29 1.29 0 0 1 .93.36 1.27 1.27 0 0 1 .37.94v2.38a11.53 11.53 0 0 1 3.63-3A11.29 11.29 0 0 1 89.77 22a12.64 12.64 0 0 1 5.33 1 10.16 10.16 0 0 1 3.69 2.83 12.74 12.74 0 0 1 2.21 4.3 20.21 20.21 0 0 1 .88 5.21v4a18.1 18.1 0 0 1-.83 5.16 12.94 12.94 0 0 1-2.24 4.22 10.21 10.21 0 0 1-3.71 2.89 12.53 12.53 0 0 1-5.36 1.05 11.31 11.31 0 0 1-5.35-1.16 10.49 10.49 0 0 1-3.55-3v13a1.27 1.27 0 0 1-.37.94 1.34 1.34 0 0 1-1 .37ZM88.19 47.3a6.1 6.1 0 0 0 6.35-4.19 14.43 14.43 0 0 0 .79-4.11 25.8 25.8 0 0 0 0-3.29 14.43 14.43 0 0 0-.79-4.14 6.1 6.1 0 0 0-6.35-4.19 6.44 6.44 0 0 0-6.5 4.22 12.74 12.74 0 0 0-.82 3.77c0 .64-.05 1.36-.05 2.16s0 1.53.05 2.21a9.3 9.3 0 0 0 .85 3.6 7.15 7.15 0 0 0 2.38 2.86 6.84 6.84 0 0 0 4.09 1.1Zm33.98 5.33a21.18 21.18 0 0 1-8.56-1.53 12.82 12.82 0 0 1-5.27-4 9.44 9.44 0 0 1-1.93-5.25 1.1 1.1 0 0 1 .34-.79 1.15 1.15 0 0 1 .85-.34h4a1.47 1.47 0 0 1 1 .31 2.75 2.75 0 0 1 .57.76 6.36 6.36 0 0 0 1.36 2.39 7.72 7.72 0 0 0 2.86 2 12.06 12.06 0 0 0 4.73.79q4.48 0 6.61-1.53a4.88 4.88 0 0 0 2.12-4.19 3.83 3.83 0 0 0-1.13-2.87 10.56 10.56 0 0 0-3.52-2c-1.58-.6-3.64-1.25-6.17-1.93a36.52 36.52 0 0 1-7-2.55 10.29 10.29 0 0 1-4.19-3.57 9.81 9.81 0 0 1-1.39-5.44 9.72 9.72 0 0 1 1.73-5.67 11.66 11.66 0 0 1 4.93-3.94 18.66 18.66 0 0 1 7.68-1.45 19 19 0 0 1 6.35 1 14 14 0 0 1 4.57 2.55 11.53 11.53 0 0 1 2.77 3.4 8.31 8.31 0 0 1 1 3.57 1.18 1.18 0 0 1-.32.77 1.09 1.09 0 0 1-.87.37h-4.14a1.83 1.83 0 0 1-.88-.23 1.5 1.5 0 0 1-.65-.85 5.22 5.22 0 0 0-2.44-3.46 9.49 9.49 0 0 0-5.39-1.42 10.19 10.19 0 0 0-5.41 1.28 4.35 4.35 0 0 0-2.07 4 4.24 4.24 0 0 0 1 2.89 8.38 8.38 0 0 0 3.18 2 58.53 58.53 0 0 0 5.75 1.9 43.26 43.26 0 0 1 7.76 2.54 10.38 10.38 0 0 1 4.4 3.51 9.64 9.64 0 0 1 1.41 5.42 10 10 0 0 1-1.95 6.2 12.32 12.32 0 0 1-5.44 4 22 22 0 0 1-8.25 1.36Zm21.6-35.26a1.34 1.34 0 0 1-1-.37 1.24 1.24 0 0 1-.37-.93v-3.58a1.34 1.34 0 0 1 .37-1 1.32 1.32 0 0 1 1-.4h4.31a1.39 1.39 0 0 1 1 .4 1.29 1.29 0 0 1 .4 1v3.58a1.2 1.2 0 0 1-.4.93 1.41 1.41 0 0 1-1 .37Zm.34 34.7a1.38 1.38 0 0 1-1-.37 1.27 1.27 0 0 1-.37-.94V23.89a1.27 1.27 0 0 1 .37-.94 1.37 1.37 0 0 1 1-.36h3.69a1.25 1.25 0 0 1 1.3 1.3v26.87a1.27 1.27 0 0 1-.37.94 1.28 1.28 0 0 1-.93.37Zm24.39 12.47a17.5 17.5 0 0 1-6.58-1.05 12.16 12.16 0 0 1-4-2.52 9.27 9.27 0 0 1-2.09-2.97 8.1 8.1 0 0 1-.65-2.38 1.13 1.13 0 0 1 .34-1 1.3 1.3 0 0 1 1-.39h3.86a1.51 1.51 0 0 1 .85.22 1.8 1.8 0 0 1 .56 1 11.19 11.19 0 0 0 1 1.73 5 5 0 0 0 1.93 1.61 7.69 7.69 0 0 0 3.57.68 11 11 0 0 0 4.05-.65 4.82 4.82 0 0 0 2.5-2.3 9.59 9.59 0 0 0 .87-4.47v-3.84a10.93 10.93 0 0 1-3.64 2.79 11.93 11.93 0 0 1-5.38 1.08 12.69 12.69 0 0 1-5.36-1 9.78 9.78 0 0 1-3.69-2.86 13.36 13.36 0 0 1-2.21-4.28 18.82 18.82 0 0 1-.82-5.27q-.06-1.53 0-3.12a18.94 18.94 0 0 1 .8-5.16 12.85 12.85 0 0 1 2.21-4.39 10.34 10.34 0 0 1 3.71-2.94 12.23 12.23 0 0 1 5.36-1.06 11.1 11.1 0 0 1 5.52 1.25 11.77 11.77 0 0 1 3.66 3.06V24a1.37 1.37 0 0 1 .37-1 1.31 1.31 0 0 1 1-.39h3.57a1.33 1.33 0 0 1 1.35 1.39v27.39a16.14 16.14 0 0 1-1.38 6.91 10 10 0 0 1-4.4 4.59 16.32 16.32 0 0 1-7.88 1.65Zm-.17-17.69a6.62 6.62 0 0 0 4.11-1.19 7.39 7.39 0 0 0 2.33-3 10.87 10.87 0 0 0 .87-3.71c0-.49.06-1.12.06-1.9s0-1.39-.06-1.84a11.09 11.09 0 0 0-.87-3.74 7.13 7.13 0 0 0-2.33-3 6.74 6.74 0 0 0-4.11-1.16 6.85 6.85 0 0 0-4.17 1.16 6.49 6.49 0 0 0-2.24 3 14.43 14.43 0 0 0-.79 4.14v2.84a14.62 14.62 0 0 0 .79 4.11 6.52 6.52 0 0 0 2.24 3.06 6.85 6.85 0 0 0 4.17 1.23Zm21.8 5.22a1.38 1.38 0 0 1-1-.37 1.31 1.31 0 0 1-.37-.94V23.89a1.31 1.31 0 0 1 .37-.94 1.37 1.37 0 0 1 1-.36h3.63a1.25 1.25 0 0 1 1.31 1.3v2.44a12.29 12.29 0 0 1 3.8-3.09 11.91 11.91 0 0 1 5.72-1.24 11.34 11.34 0 0 1 6.12 1.59 10.28 10.28 0 0 1 3.92 4.41 15.55 15.55 0 0 1 1.37 6.77v16a1.25 1.25 0 0 1-.4.94 1.39 1.39 0 0 1-1 .37h-3.92a1.28 1.28 0 0 1-.93-.37 1.27 1.27 0 0 1-.37-.94V35.06a8.33 8.33 0 0 0-1.79-5.67 6.45 6.45 0 0 0-5.13-2 6.84 6.84 0 0 0-5.18 2 7.83 7.83 0 0 0-2 5.67v15.7a1.22 1.22 0 0 1-.4.94 1.37 1.37 0 0 1-1 .37Zm40.79.56a11.76 11.76 0 0 1-5.25-1.16 9.93 9.93 0 0 1-3.74-3.09 7.31 7.31 0 0 1-1.39-4.38 7.42 7.42 0 0 1 3.18-6.27 18.1 18.1 0 0 1 8.39-3.09l8-1.19v-1.4a5.5 5.5 0 0 0-1.36-4c-.91-.94-2.42-1.41-4.54-1.41a6.9 6.9 0 0 0-3.74.9 5.22 5.22 0 0 0-2 2.44 1.32 1.32 0 0 1-1.25.74h-3.51a1.2 1.2 0 0 1-.94-.34 1.34 1.34 0 0 1-.31-.91 5.88 5.88 0 0 1 .71-2.12 8.28 8.28 0 0 1 2.07-2.5 11.76 11.76 0 0 1 3.66-2 15.47 15.47 0 0 1 5.35-.82 17.06 17.06 0 0 1 5.9.88 9.93 9.93 0 0 1 3.8 2.35 9.17 9.17 0 0 1 2.07 3.4 12.46 12.46 0 0 1 .65 4v18.1a1.22 1.22 0 0 1-.4.94 1.37 1.37 0 0 1-1 .37h-3.63a1.25 1.25 0 0 1-1.3-1.31v-2.38a9.3 9.3 0 0 1-2 2 10.74 10.74 0 0 1-3 1.62 13.85 13.85 0 0 1-4.42.63Zm1.59-4.82a8.24 8.24 0 0 0 3.91-.93A6.74 6.74 0 0 0 239.2 44a10.38 10.38 0 0 0 1-4.88v-1.4l-6.13 1a13.25 13.25 0 0 0-5.52 1.75 3.66 3.66 0 0 0-1.85 3.06 3.46 3.46 0 0 0 .85 2.41 5.33 5.33 0 0 0 2.16 1.42 8 8 0 0 0 2.8.45Zm21.96 4.26a1.25 1.25 0 0 1-1.3-1.31V13.12a1.25 1.25 0 0 1 1.3-1.31h3.74a1.25 1.25 0 0 1 1.3 1.31v37.64a1.25 1.25 0 0 1-1.3 1.31Z" fill="#6c757d"/></svg>